<?xml version="1.0" encoding="UTF-8"?>
<svg id="Capa_8_copy_copia" data-name="Capa 8 copy copia" xmlns="http://www.w3.org/2000/svg" viewBox="0 0 1305.56 1293.93">
  <defs>
    <style>
      .cls-1 {
        fill: #130c0b;
      }

      .cls-2 {
        fill: #85441e;
      }
    </style>
  </defs>
  <rect class="cls-1" x="-6.97" y="-14.7" width="1320" height="1313.36"/>
  <circle class="cls-2" cx="642.22" cy="483.1" r="137.27"/>
  <g>
    <path class="cls-1" d="M714.82,501.15h-145.19c-1.45,0-1.19.94-.27,2.31,2.92,4.36,4.9,9.29,5.46,14.51,2.93,27.4,22.7,54.61,49.86,62.97,2.93.9,5.51,2.59,7.55,4.87,2.45,2.74,6.01,4.47,9.99,4.47h0c3.97,0,7.53-1.73,9.99-4.47,2.04-2.28,4.63-3.97,7.55-4.87,27.16-8.36,46.93-35.57,49.86-62.97.56-5.22,2.54-10.14,5.46-14.51.92-1.38,1.18-2.31-.27-2.31Z"/>
    <path class="cls-1" d="M652.03,415.32c-2.32-.13-3.99-2.3-3.55-4.58l3.83-26.68c.53-2.75-1.58-5.3-4.38-5.3h-11.43c-2.8,0-4.91,2.55-4.38,5.3l3.83,26.68c.44,2.28-1.22,4.45-3.55,4.58-58.64,3.31-84,36.47-71.75,74.69.93,2.91,3.69,4.84,6.74,4.84h149.61c3.05,0,5.81-1.93,6.74-4.84,12.25-38.21-13.11-71.38-71.75-74.69Z"/>
  </g>
  <g>
    <path class="cls-2" d="M644.04,311.39l14.04,10.2c2.43,1.77,5.7-.61,4.77-3.47l-5.52-17c-.42-1.28.04-2.68,1.13-3.47l14.46-10.51c2.43-1.77,1.18-5.61-1.82-5.61h-17.88c-1.34,0-2.53-.86-2.95-2.14l-5.11-15.72c-.93-2.86-4.97-2.86-5.9,0l-5.11,15.72c-.42,1.28-1.61,2.14-2.95,2.14h-17.88c-3,0-4.25,3.84-1.82,5.61l14.46,10.51c1.09.79,1.54,2.19,1.13,3.47l-5.52,17c-.93,2.86,2.34,5.23,4.77,3.47l14.04-10.2c1.09-.79,2.56-.79,3.65,0Z"/>
    <path class="cls-2" d="M559.58,336.18l7.2-5.23c1.09-.79,2.56-.79,3.65,0l7.2,5.23c2.43,1.77,5.7-.61,4.77-3.47l-2.75-8.46c-.42-1.28.04-2.68,1.13-3.47l7.2-5.23c2.43-1.77,1.18-5.61-1.82-5.61h-8.9c-1.34,0-2.53-.86-2.95-2.14l-2.75-8.46c-.93-2.86-4.97-2.86-5.9,0l-2.75,8.46c-.42,1.28-1.61,2.14-2.95,2.14h-8.9c-3,0-4.25,3.84-1.82,5.61l7.2,5.23c1.09.79,1.54,2.19,1.13,3.47l-2.75,8.46c-.93,2.86,2.34,5.23,4.77,3.47Z"/>
    <path class="cls-2" d="M530.18,341.32h-3.04c-1.34,0-2.53-.86-2.95-2.14l-.94-2.89c-.93-2.86-4.97-2.86-5.9,0l-.94,2.89c-.42,1.28-1.61,2.14-2.95,2.14h-3.04c-3,0-4.25,3.84-1.82,5.61l2.46,1.79c1.09.79,1.54,2.19,1.13,3.47l-.94,2.89c-.93,2.86,2.34,5.23,4.77,3.47l2.46-1.79c1.09-.79,2.56-.79,3.65,0l2.46,1.79c2.43,1.77,5.7-.61,4.77-3.47l-.94-2.89c-.42-1.28.04-2.68,1.13-3.47l2.46-1.79c2.43-1.77,1.18-5.61-1.82-5.61Z"/>
    <path class="cls-2" d="M721.53,307.8l-2.75-8.46c-.93-2.86-4.97-2.86-5.9,0l-2.75,8.46c-.42,1.28-1.61,2.14-2.95,2.14h-8.9c-3,0-4.25,3.84-1.82,5.61l7.2,5.23c1.09.79,1.54,2.19,1.13,3.47l-2.75,8.46c-.93,2.86,2.34,5.23,4.77,3.47l7.2-5.23c1.09-.79,2.56-.79,3.65,0l7.2,5.23c2.43,1.77,5.7-.61,4.77-3.47l-2.75-8.46c-.42-1.28.04-2.68,1.13-3.47l7.2-5.23c2.43-1.77,1.18-5.61-1.82-5.61h-8.9c-1.34,0-2.53-.86-2.95-2.14Z"/>
    <path class="cls-2" d="M761.18,336.28l-.94,2.89c-.42,1.28-1.61,2.14-2.95,2.14h-3.04c-3,0-4.25,3.84-1.82,5.61l2.46,1.79c1.09.79,1.54,2.19,1.13,3.47l-.94,2.89c-.93,2.86,2.34,5.23,4.77,3.47l2.46-1.79c1.09-.79,2.56-.79,3.65,0l2.46,1.79c2.43,1.77,5.7-.61,4.77-3.47l-.94-2.89c-.42-1.28.04-2.68,1.13-3.47l2.46-1.79c2.43-1.77,1.18-5.61-1.82-5.61h-3.04c-1.34,0-2.53-.86-2.95-2.14l-.94-2.89c-.93-2.86-4.97-2.86-5.9,0Z"/>
  </g>
  <g>
    <path class="cls-2" d="M388.35,970.21c2.2,0,4.2.4,6.01,1.2,1.8.8,3.32,1.91,4.54,3.35,1.23,1.44,2.11,3.11,2.63,5.02.53,1.91.61,3.97.26,6.17-.35,2.2-1.08,4.26-2.2,6.17s-2.52,3.59-4.21,5.02-3.56,2.55-5.62,3.35c-2.06.8-4.19,1.2-6.39,1.2h-9.09l4.98-31.48h9.09ZM383.52,1000.74c1.91,0,3.75-.41,5.5-1.24,1.75-.83,3.34-1.95,4.76-3.35,1.42-1.4,2.6-2.98,3.54-4.74.94-1.75,1.55-3.57,1.84-5.45.29-1.85.25-3.65-.12-5.41-.37-1.75-1.03-3.34-1.99-4.76-.96-1.42-2.19-2.54-3.68-3.37-1.5-.83-3.22-1.24-5.17-1.24h-6.75l-4.69,29.57h6.75Z"/>
    <path class="cls-2" d="M416.05,1001.99c-2.17,0-4.06-.53-5.67-1.58s-2.81-2.47-3.59-4.26c-.78-1.79-1-3.76-.65-5.93.25-1.63.8-3.15,1.63-4.57.83-1.42,1.87-2.67,3.13-3.76,1.26-1.08,2.65-1.93,4.16-2.54,1.52-.61,3.09-.91,4.71-.91,2.17,0,4.06.53,5.67,1.58s2.81,2.47,3.59,4.26c.78,1.79,1,3.76.65,5.93-.35,2.17-1.2,4.15-2.54,5.93-1.34,1.79-2.98,3.21-4.93,4.26-1.95,1.05-4,1.58-6.17,1.58ZM419.59,979.45c-2.14,0-3.96.54-5.48,1.63-1.52,1.08-2.71,2.45-3.59,4.09-.88,1.64-1.46,3.33-1.75,5.05-.19,1.28-.22,2.55-.07,3.83s.5,2.44,1.08,3.49c.57,1.05,1.39,1.89,2.44,2.51,1.05.62,2.38.93,3.97.93s3.02-.32,4.28-.96c1.26-.64,2.34-1.48,3.25-2.51.91-1.04,1.64-2.19,2.2-3.47s.93-2.55,1.12-3.83c.19-1.27.21-2.55.05-3.83-.16-1.28-.53-2.43-1.1-3.47-.58-1.04-1.39-1.87-2.44-2.51-1.05-.64-2.38-.96-3.97-.96Z"/>
    <path class="cls-2" d="M455.48,980.98c.73.93,1.18,1.95,1.34,3.06.16,1.12.11,2.5-.14,4.16l-2.11,13.49h-2.39l2.11-13.49c.32-1.91.33-3.45.02-4.59s-.79-2.03-1.46-2.63c-.67-.61-1.4-1.01-2.2-1.22-.8-.21-1.53-.31-2.2-.31-1.24,0-2.45.28-3.61.84-1.17.56-2.22,1.28-3.16,2.15-.94.88-1.7,1.81-2.27,2.8-.41.7-.73,1.47-.96,2.3-.22.83-.45,1.87-.67,3.11l-1.72,11.05h-2.39l3.64-22.97h2.39l-.91,5.55c.64-.99,1.48-1.93,2.54-2.82,1.05-.89,2.24-1.62,3.57-2.18,1.32-.56,2.67-.84,4.04-.84,1.18,0,2.37.18,3.56.53,1.2.35,2.19,1.02,2.99,2.01Z"/>
    <path class="cls-2" d="M488.78,970.21l-4.98,31.48h-2.39l.67-4.4c-1.28,1.44-2.8,2.58-4.57,3.42s-3.61,1.27-5.53,1.27c-2.17,0-4.06-.53-5.67-1.58s-2.81-2.47-3.59-4.26c-.78-1.79-1-3.76-.65-5.93.25-1.63.8-3.15,1.63-4.57.83-1.42,1.87-2.67,3.13-3.76,1.26-1.08,2.65-1.93,4.16-2.54,1.52-.61,3.09-.91,4.71-.91,1.91,0,3.62.42,5.12,1.27,1.5.85,2.66,1.99,3.49,3.42l2.06-12.92h2.39ZM472.13,1000.98c2.14,0,4.1-.52,5.89-1.55,1.79-1.04,3.24-2.34,4.35-3.9l1.67-10.57c-.61-1.59-1.64-2.91-3.11-3.95-1.47-1.04-3.27-1.56-5.41-1.56-1.6,0-3.02.32-4.28.96-1.26.64-2.34,1.48-3.23,2.51s-1.62,2.19-2.18,3.47c-.56,1.28-.93,2.55-1.12,3.83-.19,1.28-.22,2.55-.07,3.83s.5,2.43,1.08,3.47c.57,1.04,1.39,1.87,2.44,2.51,1.05.64,2.38.96,3.97.96Z"/>
    <path class="cls-2" d="M514.33,990.21c-.06.26-.11.41-.14.48h-20.14c-.26,1.66-.18,3.28.24,4.86.41,1.58,1.22,2.88,2.42,3.9,1.2,1.02,2.81,1.53,4.86,1.53s3.82-.45,5.53-1.36,3.12-2.08,4.24-3.52c.16.13.4.32.72.57-1.28,1.6-2.85,2.88-4.71,3.85s-3.84,1.46-5.91,1.46-4.06-.53-5.67-1.58-2.81-2.47-3.59-4.26c-.78-1.79-1-3.76-.65-5.93.25-1.63.8-3.15,1.63-4.57.83-1.42,1.87-2.67,3.13-3.76,1.26-1.08,2.65-1.93,4.16-2.54,1.52-.61,3.09-.91,4.71-.91,2.2,0,4.04.53,5.53,1.58,1.48,1.05,2.55,2.47,3.21,4.26.65,1.79.81,3.76.46,5.93ZM504.91,979.45c-2.04,0-3.82.51-5.33,1.53-1.52,1.02-2.72,2.31-3.61,3.88-.89,1.56-1.47,3.17-1.72,4.83h17.51c.16-1.24.18-2.47.07-3.68s-.41-2.31-.91-3.3c-.49-.99-1.23-1.78-2.2-2.37s-2.24-.89-3.8-.89Z"/>
    <path class="cls-2" d="M553.95,980.98c.73.93,1.19,1.95,1.36,3.06.18,1.12.13,2.5-.12,4.16l-2.11,13.49h-2.39l2.11-13.49c.32-1.91.33-3.45.02-4.59s-.79-2.03-1.46-2.63c-.67-.61-1.4-1.01-2.2-1.22-.8-.21-1.53-.31-2.2-.31-1.28,0-2.5.28-3.66.84-1.16.56-2.22,1.28-3.16,2.15-.94.88-1.7,1.81-2.27,2.8-.41.7-.73,1.47-.96,2.3-.22.83-.45,1.87-.67,3.11l-1.72,11.05h-2.35l4.98-31.48h2.35l-2.25,14.07c.67-.99,1.53-1.93,2.58-2.82,1.05-.89,2.23-1.62,3.54-2.18,1.31-.56,2.66-.84,4.07-.84,1.15,0,2.33.18,3.54.53,1.21.35,2.2,1.02,2.97,2.01Z"/>
    <path class="cls-2" d="M585.96,978.73l-3.64,22.97h-2.39l.67-4.4c-1.28,1.44-2.8,2.58-4.57,3.42s-3.61,1.27-5.53,1.27c-2.17,0-4.06-.53-5.67-1.58s-2.81-2.47-3.59-4.26c-.78-1.79-1-3.76-.65-5.93.25-1.63.8-3.15,1.63-4.57.83-1.42,1.87-2.67,3.13-3.76,1.26-1.08,2.65-1.93,4.16-2.54,1.52-.61,3.09-.91,4.71-.91,1.91,0,3.62.42,5.12,1.27,1.5.85,2.66,1.99,3.49,3.42l.72-4.4h2.39ZM570.65,1000.98c2.14,0,4.1-.52,5.89-1.55,1.79-1.04,3.24-2.34,4.35-3.9l1.67-10.57c-.61-1.59-1.64-2.91-3.11-3.95-1.47-1.04-3.27-1.56-5.41-1.56-1.6,0-3.02.32-4.28.96-1.26.64-2.34,1.48-3.23,2.51s-1.62,2.19-2.18,3.47c-.56,1.28-.93,2.55-1.12,3.83-.19,1.28-.22,2.55-.07,3.83s.5,2.43,1.08,3.47c.57,1.04,1.39,1.87,2.44,2.51,1.05.64,2.38.96,3.97.96Z"/>
    <path class="cls-2" d="M589.59,1001.7l4.98-31.48h2.39l-2.06,12.92c1.31-1.44,2.85-2.58,4.62-3.42,1.77-.84,3.61-1.27,5.53-1.27,2.17,0,4.06.53,5.67,1.58s2.81,2.47,3.59,4.26c.78,1.79,1,3.76.65,5.93-.35,2.17-1.2,4.15-2.54,5.93-1.34,1.79-2.98,3.21-4.93,4.26-1.95,1.05-4,1.58-6.17,1.58-1.91,0-3.62-.42-5.12-1.27-1.5-.85-2.68-1.99-3.54-3.42l-.67,4.4h-2.39ZM592.94,995.53c.64,1.56,1.68,2.86,3.13,3.9,1.45,1.04,3.25,1.55,5.38,1.55,1.59,0,3.01-.32,4.26-.96,1.24-.64,2.33-1.48,3.25-2.51.92-1.04,1.67-2.19,2.22-3.47s.93-2.55,1.12-3.83c.19-1.27.22-2.55.07-3.83-.14-1.28-.5-2.43-1.08-3.47s-1.4-1.87-2.46-2.51c-1.07-.64-2.4-.96-4-.96-2.14,0-4.09.52-5.86,1.56-1.77,1.04-3.23,2.35-4.38,3.95l-1.68,10.57Z"/>
    <path class="cls-2" d="M622.89,978.73h2.39l-3.64,22.97h-2.39l3.64-22.97ZM627.11,972.22c.1-.57-.02-1.05-.34-1.44s-.78-.57-1.39-.57c-.51,0-1,.19-1.46.57-.46.38-.74.86-.84,1.44-.06.54.07,1,.41,1.39.34.38.76.57,1.27.57.54,0,1.05-.19,1.53-.57.48-.38.75-.84.81-1.39ZM623.9,971.51c-.06.35,0,.65.22.91.21.26.49.38.84.38s.68-.13.98-.38c.3-.25.49-.56.55-.91s-.02-.65-.24-.91c-.22-.26-.51-.38-.86-.38s-.67.13-.96.38-.46.56-.53.91Z"/>
    <path class="cls-2" d="M643.04,1001.46c-.51.16-1.21.29-2.11.38s-1.63.14-2.2.14c-.41,0-.96-.06-1.65-.19-.69-.13-1.36-.37-2.03-.74-.67-.37-1.21-.89-1.63-1.56-.48-.73-.73-1.68-.77-2.85-.03-1.16.06-2.48.29-3.95l1.96-12.49h-4.83l.14-1h4.83l1.44-8.99h2.34l-1.43,8.99h7.56l-.14,1h-7.56l-1.96,12.39c-.22,1.37-.33,2.55-.31,3.54.02.99.2,1.8.55,2.44.6,1.09,1.5,1.76,2.68,2.01,1.18.26,2.74.22,4.69-.1l.14.96Z"/>
    <path class="cls-2" d="M672.8,978.73l-3.64,22.97h-2.39l.67-4.4c-1.28,1.44-2.8,2.58-4.57,3.42s-3.61,1.27-5.53,1.27c-2.17,0-4.06-.53-5.67-1.58s-2.81-2.47-3.59-4.26c-.78-1.79-1-3.76-.65-5.93.25-1.63.8-3.15,1.63-4.57.83-1.42,1.87-2.67,3.13-3.76,1.26-1.08,2.65-1.93,4.16-2.54,1.52-.61,3.09-.91,4.71-.91,1.91,0,3.62.42,5.12,1.27,1.5.85,2.66,1.99,3.49,3.42l.72-4.4h2.39ZM657.49,1000.98c2.14,0,4.1-.52,5.89-1.55,1.79-1.04,3.24-2.34,4.35-3.9l1.67-10.57c-.61-1.59-1.64-2.91-3.11-3.95-1.47-1.04-3.27-1.56-5.41-1.56-1.6,0-3.02.32-4.28.96-1.26.64-2.34,1.48-3.23,2.51s-1.62,2.19-2.18,3.47c-.56,1.28-.93,2.55-1.12,3.83-.19,1.28-.22,2.55-.07,3.83s.5,2.43,1.08,3.47c.57,1.04,1.39,1.87,2.44,2.51,1.05.64,2.38.96,3.97.96Z"/>
    <path class="cls-2" d="M695.62,970.21h2.39l-4.98,31.48h-2.39l4.98-31.48Z"/>
    <path class="cls-2" d="M726.43,978.73l-3.64,22.97h-2.39l.67-4.4c-1.28,1.44-2.8,2.58-4.57,3.42s-3.61,1.27-5.53,1.27c-2.17,0-4.06-.53-5.67-1.58s-2.81-2.47-3.59-4.26c-.78-1.79-1-3.76-.65-5.93.25-1.63.8-3.15,1.63-4.57.83-1.42,1.87-2.67,3.13-3.76,1.26-1.08,2.65-1.93,4.16-2.54,1.52-.61,3.09-.91,4.71-.91,1.91,0,3.62.42,5.12,1.27,1.5.85,2.66,1.99,3.49,3.42l.72-4.4h2.39ZM711.12,1000.98c2.14,0,4.1-.52,5.89-1.55,1.79-1.04,3.24-2.34,4.35-3.9l1.67-10.57c-.61-1.59-1.64-2.91-3.11-3.95-1.47-1.04-3.27-1.56-5.41-1.56-1.6,0-3.02.32-4.28.96-1.26.64-2.34,1.48-3.23,2.51s-1.62,2.19-2.18,3.47c-.56,1.28-.93,2.55-1.12,3.83-.19,1.28-.22,2.55-.07,3.83s.5,2.43,1.08,3.47c.57,1.04,1.39,1.87,2.44,2.51,1.05.64,2.38.96,3.97.96Z"/>
    <path class="cls-2" d="M764.52,1010.88h-2.39l2.15-13.59c-1.28,1.44-2.8,2.58-4.57,3.42s-3.61,1.27-5.53,1.27c-2.17,0-4.06-.53-5.67-1.58s-2.81-2.47-3.59-4.26c-.78-1.79-1-3.76-.65-5.93.25-1.63.8-3.15,1.63-4.57.83-1.42,1.87-2.67,3.13-3.76,1.26-1.08,2.65-1.93,4.16-2.54,1.52-.61,3.09-.91,4.71-.91,1.91,0,3.62.42,5.12,1.27,1.5.85,2.66,1.99,3.49,3.42l.72-4.4h2.39l-5.12,32.15ZM757.73,979.45c-1.6,0-3.01.32-4.26.96-1.24.64-2.32,1.48-3.23,2.51s-1.64,2.19-2.2,3.47c-.56,1.28-.93,2.55-1.12,3.83-.19,1.28-.22,2.55-.07,3.83s.5,2.43,1.08,3.47c.57,1.04,1.39,1.87,2.44,2.51,1.05.64,2.38.96,3.97.96,2.14,0,4.1-.52,5.89-1.55,1.79-1.04,3.24-2.35,4.35-3.95l1.67-10.57c-.61-1.59-1.64-2.9-3.11-3.92-1.47-1.02-3.27-1.53-5.41-1.53Z"/>
    <path class="cls-2" d="M775.81,999.45c-.7-.92-1.14-1.95-1.32-3.06s-.14-2.5.12-4.16l2.15-13.49h2.39l-2.15,13.49c-.29,1.91-.28,3.45.02,4.59s.78,2.03,1.44,2.63c.65.61,1.38,1.01,2.18,1.22s1.53.31,2.2.31c1.28,0,2.5-.28,3.66-.84,1.16-.56,2.23-1.28,3.18-2.18.96-.89,1.71-1.82,2.25-2.77.45-.73.77-1.51.98-2.32s.41-1.84.6-3.09l1.77-11.05h2.39l-3.64,22.97h-2.39l.86-5.55c-.64.99-1.48,1.93-2.51,2.82-1.04.89-2.21,1.62-3.52,2.18-1.31.56-2.66.84-4.07.84-1.15,0-2.33-.18-3.54-.53-1.21-.35-2.23-1.02-3.06-2.01Z"/>
    <path class="cls-2" d="M805.43,978.73h2.39l-3.64,22.97h-2.39l3.64-22.97ZM809.64,972.22c.1-.57-.02-1.05-.34-1.44s-.78-.57-1.39-.57c-.51,0-1,.19-1.46.57-.46.38-.74.86-.84,1.44-.06.54.07,1,.41,1.39.34.38.76.57,1.27.57.54,0,1.05-.19,1.53-.57.48-.38.75-.84.81-1.39ZM806.43,971.51c-.06.35,0,.65.22.91.21.26.49.38.84.38s.68-.13.98-.38c.3-.25.49-.56.55-.91s-.02-.65-.24-.91c-.22-.26-.51-.38-.86-.38s-.67.13-.96.38-.46.56-.53.91Z"/>
    <path class="cls-2" d="M835.14,990.21c-.06.26-.11.41-.14.48h-20.14c-.26,1.66-.18,3.28.24,4.86.41,1.58,1.22,2.88,2.42,3.9,1.2,1.02,2.81,1.53,4.86,1.53s3.82-.45,5.53-1.36,3.12-2.08,4.24-3.52c.16.13.4.32.72.57-1.28,1.6-2.85,2.88-4.71,3.85s-3.84,1.46-5.91,1.46-4.06-.53-5.67-1.58-2.81-2.47-3.59-4.26c-.78-1.79-1-3.76-.65-5.93.25-1.63.8-3.15,1.63-4.57.83-1.42,1.87-2.67,3.13-3.76,1.26-1.08,2.65-1.93,4.16-2.54,1.52-.61,3.09-.91,4.71-.91,2.2,0,4.04.53,5.53,1.58,1.48,1.05,2.55,2.47,3.21,4.26.65,1.79.81,3.76.46,5.93ZM825.71,979.45c-2.04,0-3.82.51-5.33,1.53-1.52,1.02-2.72,2.31-3.61,3.88-.89,1.56-1.47,3.17-1.72,4.83h17.51c.16-1.24.18-2.47.07-3.68s-.41-2.31-.91-3.3c-.49-.99-1.23-1.78-2.2-2.37s-2.24-.89-3.8-.89Z"/>
    <path class="cls-2" d="M852.32,1001.46c-.51.16-1.21.29-2.11.38s-1.63.14-2.2.14c-.41,0-.96-.06-1.65-.19-.69-.13-1.36-.37-2.03-.74-.67-.37-1.21-.89-1.63-1.56-.48-.73-.73-1.68-.77-2.85-.03-1.16.06-2.48.29-3.95l1.96-12.49h-4.83l.14-1h4.83l1.44-8.99h2.34l-1.43,8.99h7.56l-.14,1h-7.56l-1.96,12.39c-.22,1.37-.33,2.55-.31,3.54.02.99.2,1.8.55,2.44.6,1.09,1.5,1.76,2.68,2.01,1.18.26,2.74.22,4.69-.1l.14.96Z"/>
    <path class="cls-2" d="M860.12,999.45c-.7-.92-1.14-1.95-1.32-3.06s-.14-2.5.12-4.16l2.15-13.49h2.39l-2.15,13.49c-.29,1.91-.28,3.45.02,4.59s.78,2.03,1.44,2.63c.65.61,1.38,1.01,2.18,1.22s1.53.31,2.2.31c1.28,0,2.5-.28,3.66-.84,1.16-.56,2.23-1.28,3.18-2.18.96-.89,1.71-1.82,2.25-2.77.45-.73.77-1.51.98-2.32s.41-1.84.6-3.09l1.77-11.05h2.39l-3.64,22.97h-2.39l.86-5.55c-.64.99-1.48,1.93-2.51,2.82-1.04.89-2.21,1.62-3.52,2.18-1.31.56-2.66.84-4.07.84-1.15,0-2.33-.18-3.54-.53-1.21-.35-2.23-1.02-3.06-2.01Z"/>
    <path class="cls-2" d="M912.7,970.21l-4.98,31.48h-2.39l.67-4.4c-1.28,1.44-2.8,2.58-4.57,3.42s-3.61,1.27-5.53,1.27c-2.17,0-4.06-.53-5.67-1.58s-2.81-2.47-3.59-4.26c-.78-1.79-1-3.76-.65-5.93.25-1.63.8-3.15,1.63-4.57.83-1.42,1.87-2.67,3.13-3.76,1.26-1.08,2.65-1.93,4.16-2.54,1.52-.61,3.09-.91,4.71-.91,1.91,0,3.62.42,5.12,1.27,1.5.85,2.66,1.99,3.49,3.42l2.06-12.92h2.39ZM896.05,1000.98c2.14,0,4.1-.52,5.89-1.55,1.79-1.04,3.24-2.34,4.35-3.9l1.67-10.57c-.61-1.59-1.64-2.91-3.11-3.95-1.47-1.04-3.27-1.56-5.41-1.56-1.6,0-3.02.32-4.28.96-1.26.64-2.34,1.48-3.23,2.51s-1.62,2.19-2.18,3.47c-.56,1.28-.93,2.55-1.12,3.83-.19,1.28-.22,2.55-.07,3.83s.5,2.43,1.08,3.47c.57,1.04,1.39,1.87,2.44,2.51,1.05.64,2.38.96,3.97.96Z"/>
  </g>
  <g>
    <path class="cls-2" d="M464.4,690.79c0-17.73,13.03-30.76,31.48-30.76,14.84,0,26.23,8.41,30.03,20.99h-6.88c-3.53-9.05-12.12-15.02-23.16-15.02-14.75,0-24.97,10.49-24.97,24.79s10.22,24.79,24.97,24.79c11.04,0,19.63-5.97,23.16-15.02h6.88c-3.8,12.57-15.2,20.99-30.03,20.99-18.45,0-31.48-13.03-31.48-30.76Z"/>
    <path class="cls-2" d="M531.89,698.03c0-13.57,9.95-23.52,24.06-23.52s24.06,9.95,24.06,23.52-9.95,23.52-24.06,23.52-24.06-9.95-24.06-23.52ZM573.87,698.03c0-10.31-7.24-17.91-17.91-17.91s-17.91,7.6-17.91,17.91,7.24,17.91,17.91,17.91,17.91-7.6,17.91-17.91Z"/>
    <path class="cls-2" d="M587.08,693.59c0-12.85,7.69-19.09,18.82-19.09s18.73,6.24,18.73,19.18v.54h-5.97v-.63c0-9.32-5.16-13.48-12.76-13.48s-12.76,4.16-12.76,13.48v26.78h-6.06v-26.78Z"/>
    <path class="cls-2" d="M630.59,703.91v-44.06h6.06v15.83h26.33v5.52h-26.33v22.71c0,8.14,4.52,12.03,11.49,12.03s11.49-3.8,11.49-12.03v-.99h5.88v.99c0,11.76-7.06,17.64-17.37,17.64s-17.55-5.88-17.55-17.64Z"/>
    <path class="cls-2" d="M671.3,698.03c0-13.57,9.95-23.52,24.06-23.52s23.88,9.95,23.88,23.52v1.99h-41.7c.81,9.32,7.78,15.92,17.82,15.92,7.06,0,12.48-2.89,15.38-8.05h6.6c-3.44,8.23-11.58,13.66-21.98,13.66-14.11,0-24.06-9.95-24.06-23.52ZM712.91,694.59c-1.45-9.05-8.5-14.47-17.55-14.47s-16.28,5.7-17.64,14.47h35.19Z"/>
    <path class="cls-2" d="M724.13,715.48l32.11-34.38h-30.76v-5.43h38.9v4.89l-32.11,34.38h33.02v5.43h-41.16v-4.89Z"/>
    <path class="cls-2" d="M770.63,698.3c0-13.93,9.95-23.79,24.06-23.79s23.97,9.68,23.97,23.79v22.07h-5.61v-11.04c-3.17,7.96-10.58,12.21-19.27,12.21-12.57,0-23.16-8.96-23.16-23.25ZM812.61,698.03c0-10.31-7.24-17.91-17.91-17.91s-17.91,7.6-17.91,17.91,7.24,17.91,17.91,17.91,17.91-7.6,17.91-17.91Z"/>
    <path class="cls-2" d="M532.8,740.37h6.51v26.14h38.36v-26.14h6.51v59.16h-6.51v-27.05h-38.36v27.05h-6.51v-59.16Z"/>
    <path class="cls-2" d="M592.87,777.18c0-13.57,9.95-23.52,24.06-23.52s24.06,9.95,24.06,23.52-9.95,23.52-24.06,23.52-24.06-9.95-24.06-23.52ZM634.84,777.18c0-10.31-7.24-17.91-17.91-17.91s-17.91,7.6-17.91,17.91,7.24,17.91,17.91,17.91,17.91-7.6,17.91-17.91Z"/>
    <path class="cls-2" d="M648.05,783.06v-44.06h6.06v15.83h26.33v5.52h-26.33v22.71c0,8.14,4.52,12.03,11.49,12.03s11.49-3.8,11.49-12.03v-.99h5.88v.99c0,11.76-7.06,17.64-17.37,17.64s-17.55-5.88-17.55-17.64Z"/>
    <path class="cls-2" d="M688.76,777.18c0-13.57,9.95-23.52,24.06-23.52s23.88,9.95,23.88,23.52v1.99h-41.7c.81,9.32,7.78,15.92,17.82,15.92,7.06,0,12.48-2.89,15.38-8.05h6.6c-3.44,8.23-11.58,13.66-21.98,13.66-14.11,0-24.06-9.95-24.06-23.52ZM730.37,773.75c-1.45-9.05-8.5-14.47-17.55-14.47s-16.28,5.7-17.64,14.47h35.19Z"/>
    <path class="cls-2" d="M745.48,735.3h6.06v64.23h-6.06v-64.23Z"/>
  </g>
</svg>