<?xml version="1.0" encoding="UTF-8"?>
<svg id="Aplicación_de_color" data-name="Aplicación de color" xmlns="http://www.w3.org/2000/svg" viewBox="0 0 1789.36 1080">
  <defs>
    <style>
      .cls-1 {
        fill: #f7f7f2;
      }

      .cls-2 {
        fill: #491215;
      }

      .cls-3 {
        fill: #ebd0b2;
      }
    </style>
  </defs>
  <rect class="cls-2" width="1789.36" height="1080"/>
  <g>
    <g>
      <path class="cls-3" d="M748.46,415.52s.03-.03.05-.05c-1.15.56-2.32,1.24-3.54,1.95-.88.51-1.79,1.04-2.73,1.55.02.76.03,1.54.05,2.31,1.02-1.02,2.07-1.96,3.07-2.85,1.12-.99,2.17-1.93,3.1-2.91Z"/>
      <path class="cls-3" d="M1464.39,579.99c-9.04-5.3-18.5-6.52-25.64-6.07,10.12-7.93,29.78-20.75,54.35-23.92,0,.05,0,.09,0,.13.13,2.83,2.52,5.02,5.36,4.9l14.94-.67c2.34-.1,4.22-1.77,4.74-3.94.46.08.92.15,1.39.23.52.1,1.04-.25,1.13-.78s-.25-1.04-.78-1.13c-.56-.1-1.11-.19-1.66-.28-.4-2.55-2.63-4.46-5.27-4.34l-14.94.67c-2.08.09-3.8,1.41-4.52,3.22-23.84,2.92-43.2,14.79-54.05,22.96,2.68-4.19,5.66-8.97,8.97-15.23-5.82,4.51-10.46,8.43-14.33,12.14,3.9-6.17,9.23-13.74,16.05-21.55,9.51-10.88,23.24-23.63,41.18-33.07.02.06.04.11.06.17,1.53,3.6,5.69,5.28,9.28,3.75l19-8.06c2.98-1.26,4.64-4.33,4.25-7.39.63-.12,1.25-.25,1.88-.36.73-.13,1.22-.83,1.09-1.56-.13-.73-.83-1.22-1.56-1.09-.76.13-1.5.29-2.25.43-1.74-3.12-5.59-4.5-8.95-3.07l-19,8.06c-2.64,1.12-4.24,3.65-4.31,6.34-18.69,9.67-32.94,22.89-42.76,34.14-7.52,8.62-13.27,16.97-17.3,23.51-1.38-8.78-5.35-20.9-15.07-31.48,6.66,13.54,8.79,26.36,7.82,35.52-4.21-5.01-9.13-10.4-17.04-15.59,7.65,6.65,11.05,12.99,13.73,18.96-7.07-1.49-14.44-2.1-21.34-2.1.7-4.9,1.05-9.8,1.4-14,.7-7.35,1.4-15.75,1.4-18.9,0-8.75-1.4-11.55-8.4-11.55-15.75,0-18.55,23.1-20.3,38.15l-1.4,10.85-4.9,2.1c-2.45,1.05-5.25,2.45-6.65,3.15-9.8,5.6-12.6,20.3.35,20.3,2.8,0,6.65-1.05,9.1-1.75-.69,11.4-1.95,27.56-3.28,45.76-6.2,3.98-18.3,14.79-22.87,14.79-5.95,0-8.4-2.45-8.4-11.55,0-11.55,10.15-31.15,10.15-44.45,0-14-4.55-21-18.2-21-22.75,0-41.65,60.2-48.65,60.2-1.4,0,4.2-27.3,4.2-44.1,0-8.75-1.4-21-14.7-21-15.4,0-38.15,41.65-47.6,59.5v-29.05c0-15.75,4.9-9.1,4.9-24.15,0-7-2.1-9.8-5.6-9.8-5.25,0-10.15,5.6-17.5,13.65-6.3,6.3-13.3,13.65-13.3,17.85,0,5.6,6.3,8.05,6.3,17.85,0,2.81-1.6,10.18-2.83,19.11,0,0,0,0,0,0-.78,6.53-12.56,14.84-17.46,14.84-3.5,0-7.35-4.2-8.4-5.95,2.8-4.55,5.6-8.75,7.7-12.25,3.85-6.65,8.05-14,8.05-17.15.7-3.5.7-12.6-8.05-12.6-18.2,0-24.85,19.6-28.7,31.5-2.45,7-5.25,12.25-7.7,15.4-1.75.7-3.85,1.4-5.25,2.1-3.15,1.05-6.65,2.1-8.4,2.1-4.2,0-9.45.35-9.45-12.6,0-24.85,15.75-54.6,32.9-54.6,11.55,0,10.5,7.7,18.55,7.7,4.55,0,17.5-7.35,17.5-15.4,0-11.2-10.15-12.6-20.3-12.6-2.92,0-5.74.19-8.47.54-.76-4.18-2.75-11.23-7.42-17.23-6.18-9.64-18.71-16.78-18.52-16.33,8.87,10.04,15.06,21.66,18.2,33.8-5.64-8.16-16.16-14.41-29.2-15.36,9.67,3.65,17.57,9.71,22.95,17.08-8.07-2.79-19.5-1.57-29.29,6.67,7.9-3.81,15.87-4.13,22.3-2.15-13.54,6.95-23.98,18.29-31.64,30.48-.64-15.18-9.63-34.36-15.36-34.36-5.25,0-16.8,9.1-16.8,15.4s11.55,21.35,11.55,35.7c0,9.8-7.7,30.1-21,30.1-18.2,0-18.2-10.85-18.2-21.7,0-24.85,10.5-38.15,11.2-43.4.35-5.6-.7-12.6-12.6-12.6-13.3,0-25.9,38.15-25.9,54.6v15.05l-5.95,3.5c-3.5,2.1-7.35,3.85-9.45,3.85-7.35,0-10.85-5.95-10.85-17.5,0-16.45,11.9-49.7,11.9-56.7,0-3.5-2.1-6.3-9.45-6.3-8.75,0-12.95,3.5-17.15,10.5-1.47,2.61-3.17,8.75-4.79,16.51-5.35-27.61-33-38-60.66-48.37-26.6-10.15-52.5-19.6-52.5-46.55,0-14.74,5.34-29.12,15.88-41.57l1.4,14.2c.14,2.84,4.3,2.97,4.62.15l2.45-21.62c.32-2.84,4.49-2.69,4.62.16.51,11.47,1.02,21.54,1.18,20.13.16-1.46,1.76-11.7,3.42-22.21.44-2.78,4.52-2.52,4.61.29l2.48,50.48c.09,2.93,4.4,3.03,4.63.11l6.8-55.85c.21-2.69,4.06-2.91,4.58-.27l1.31,6.67c.51,2.57,4.22,2.46,4.57-.14l2.02-15.1c.35-2.63,4.13-2.7,4.58-.09.43,2.49,3.97,2.59,4.54.13l3.53-11.12c2.61-.62,5.26-1.21,8-1.73,11.47-2.18,23.19-1.95,28.17,6.89,9.41,16.72-13.46,46.43-25.41,50.7-11.96,4.26-16.69,10.51-19.84,17.86-2.1,4.2-2.41,8.11.74,11.97,2.1,2.45,7.42,2.72,9.87,2.72,4.2,0,10.49-1.04,18.89-6.64,12.25-7.35,38.52-38.65,38.52-69.45,0-10.09-2.5-19.66-9.28-26.3l1.67-.25c8.85-1.33,15.92-8.08,17.65-16.86l.04-.22h0c-6.24-.99-12.44.87-17.08,4.82,2.78-8.17,1.87-17.33-2.91-24.91l-.17-.26c-9.87,6.75-14.6,18.85-11.94,30.5-4.09-1.2-8.85-1.87-14.4-1.87-34.56,0-81.1,22.89-108.58,55.33-8.1,7.77-17.71,13.62-27.79,18.01,3.03-3.47,3.67-8.44,1.6-12.57l-.11.06c-4.21,2.31-6.51,7.02-5.75,11.76l.38,2.36c-15.67,6.18-32.13,9-45.62,10.03-9.09-7.31-18.07-17.23-26.44-29.44-.16-6.62-.31-13.11-.46-19.39-.98.33-2.04.64-3.18.88-.32.07-.64.1-.95.1-2.09,0-3.97-1.46-4.43-3.58-.03-.14-.05-.28-.06-.42-.55-6,.56-11.73,3.49-18.02,1.09-2.49,2.74-4.51,4.5-6.28-.02-.78-.03-1.55-.05-2.31-2.46,1.32-5.18,2.49-8.3,2.79-1.77.21-3.45.31-5.07.31-4.58,0-8.68-.84-12.79-2.6-2.33-1.03-3.37-3.72-2.35-6.01.05-.12.11-.23.18-.34,3.03-5.18,7.22-9.17,13.22-12.55,3.66-2.17,7.77-2.59,11.4-2.96.54-.05,1.05-.11,1.56-.17-.53-.06-1.05-.11-1.6-.17-3.66-.36-7.8-.77-11.57-2.96-6-3.32-10.12-7.14-13.29-12.35-.64-1.08-.81-2.3-.51-3.48.3-1.17,1.04-2.16,2.09-2.77.12-.07.24-.13.37-.19,5.52-2.42,11.3-3.18,18.2-2.4,2.89.26,5.47,1.3,7.83,2.51-1.9-14.5-23.37-14.21-37.22-10.73-9.64,2.75-20.07,10.33-20.51,21.28-.21,5.33,3.46,21.03,8.61,42.13,1.6-.42,3.19-.85,4.78-1.24,1.3-.32,2.64-.77,4.06-1.25,3.48-1.17,7.43-2.5,11.77-2.03,6.83.57,12.16,2.37,17.18,5.82,1.03.73,1.68,1.77,1.89,2.96.21,1.19-.07,2.4-.77,3.38-.08.11-.17.22-.26.33-4.04,4.47-9.01,7.53-15.62,9.64-2.14.74-4.31.97-6.42.97-1.88,0-3.7-.18-5.42-.35-.42-.04-.81-.08-1.21-.11,1.32.45,2.64.89,3.99,1.27.03,0,.06.02.1.03,6.55,2.08,10.91,6.92,13.61,10.38,1.53,2.06,3.41,4.85,4.75,8.74.39,1.14.32,2.37-.21,3.46-.53,1.09-1.45,1.9-2.6,2.3-.13.05-.27.08-.41.11-2.2.47-4.39.71-6.61.71-3.73,0-7.56-.67-11.7-2.02-.17-.05-.33-.12-.5-.18,9.63,41.08,19.31,88.27,19.31,121.59,0,21-4.73,72.3-38.68,72.3-11.9,0-18.2-10.5-18.2-23.45,0-18.55,18.2-38.85,32.55-38.85,7,0,15.05-8.05,16.8-15.4,1.4-7.35,1.4-14.7-9.8-14-6.09.45-28.35,11.83-43.38,34.3,0,0,0,0,0,0-8.69,11.48-44.96,54.95-60.36,54.95-11.55,0-12.95-7.35-12.95-10.15,11.55-4.9,22.05-10.15,30.8-16.1,15.05-10.15,29.75-24.5,28-40.6-.63-8.14-5.73-16.83-16.81-18.58,7.78-14.23,19.25-27.64,39.36-36.57-22.72,6.9-35.29,19.99-44.03,32.97,6.15-24.13,17.19-47.76,34.01-73.31-21.19,22.74-32.5,46.18-39.22,68.97-3.98-16.27-12.12-33.99-30.85-49.05,15.46,16.82,22.67,35.27,25.08,52.84-5.03-6.15-10.83-12.36-19.75-18.09,8.06,7.99,12.36,16.41,15.7,24.82-30.72,11.45-54.12,54.05-50.37,79.44-.14-.06-.26-.1-.4-.16-26.5-13.63-59.71-57.78-60.59-65.78-.8-7.31,9.18-15.8,20.67-26.57,20.08-19.11,48.64-47.61,44.69-83.44-4.21-38.27-31.94-59.87-58.03-57-9.25,1.02-17.46,3.41-24.78,6.95-1.08-9,.12-19.02,3.01-29.35-6.75,8.72-11.12,17.49-13.79,25.53-3.19-9.83-5.33-20.75-8.12-32.74-4.52,15.25-5.66,29.54-4.48,41.57-.02-.02-.04-.05-.06-.07-2.75-11.11-7.28-26.09-14.5-42.37-8.84-19.94-23-44.53-44.88-66.09,1.06-3.78-.07-8-3.27-10.7l-23-19.46c-4.07-3.45-10.04-3.19-13.81.41-.98-.53-1.96-1.06-2.95-1.58-.97-.5-2.15-.12-2.64.85-.5.96-.12,2.15.84,2.64.83.43,1.65.88,2.47,1.32-1.85,4.1-.87,9.09,2.74,12.14l23,19.46c4.36,3.69,10.88,3.14,14.57-1.22.06-.07.1-.14.16-.21,20.94,20.91,34.57,44.63,43.13,63.91,5.47,12.32,9.37,23.88,12.12,33.54-6.4-7.78-13.59-16.23-22.71-25.71,4.86,11.38,9.45,21.11,14.01,29.81-8.67-10.99-21.17-23.78-37.79-33.66.08-2.56-1.29-5.05-3.73-6.26l-17.58-8.72c-3.11-1.54-6.84-.46-8.67,2.41-.7-.18-1.4-.37-2.11-.54-.68-.16-1.38.26-1.54.95-.16.69.26,1.38.95,1.54.59.14,1.18.3,1.77.45-.53,2.88.87,5.89,3.62,7.25l17.58,8.72c3.33,1.65,7.37.29,9.02-3.04.03-.05.04-.11.07-.16,22.43,13.58,37.7,33,46.94,47.81-16.96-8.44-41.24-15.17-72.08-13.22,29,4.76,51.58,12.39,67.97,23.04-15.2-.43-34.85,1.62-56.78,16.04,21.03-9.14,38.61-8.69,53.06-4.82-13.66,26.91-20.08,62.29-24.72,97.65-4.17,32.5-12.64,73.93-18.9,103.49-3.88,15.92,6.55,17.94,20.74,15.68,21.42-3.77,28.77-13.73,26.21-37.04-4.12-37.49-12.34-136.67,17.42-178.79.37-.19.6-.52.67-.91,7.44-10.13,17.18-16.79,29.85-18.18,20.53-2.26,35.93,19.29,37.65,34.94,4.33,39.31-28.95,69.74-54.25,95.76-7.89,8.26-14.2,18.11-6.95,29.64,9.26,13.77,33.51,44.51,64.04,60.27,28.34,14.64,54.62,15.09,60.89,15.08.04,0,.07,0,.1,0,.05,0,.09,0,.14,0,.37,0,.65,0,.85,0,.08,0,.14,0,.2-.01,22.64-.59,39.36-17.7,49.1-31.38.8,16.17,6.88,33.5,27.9,33.5s47.12-20.53,60.74-53.19l.06.21c2.83,8.97,10.86,15.3,20.25,15.94v-.24c.3-9.65-5.49-18.44-14.48-21.98l-1.51-.6,2.35.48c7.3,1.2,14.58-2.2,18.36-8.56l-.17-.09c-6.61-3.59-14.75-2.69-20.4,2.25,3.27-11.14,5.15-23.37,5.15-36.44,0-17.39-.29-38.68-.71-61.05,8.51,8.15,26.11,19.59,47.88,24.03l1.09,3.84c1.59,4.86,5.99,8.26,11.09,8.56v-.13c.1-4.8-2.58-9.18-6.79-11.33,4.11.59,8.35.93,12.69.93,7.51,0,15.31-1,23.24-3.3,13.33,17.81,37.86,29.18,58.77,38.07,22.75,9.45,35.19,16.17,35.19,31.22,0,17.85-7.06,33.7-35.06,33.7-18.55,0-31.53-10.18-36.43-23.83-3.5-9.8-6.3-17.5-12.6-17.5-6.65,0-14.97,19.97-14.97,29.07,0,19.25,27.12,49.54,61.07,49.89,20.61.55,58.27-16.17,73.5-47.44-.45,5.08-.71,9.73-.71,13.51,0,17.15,8.4,33.95,21,33.95,7,0,26.6-18.2,33.25-24.15,2.45,4.2,5.6,8.05,8.4,11.55,5.25,5.95,12.6,11.9,20.65,11.9,2.25,0,5.49-1.22,9.29-3.45l2.59,35.26c.22,2.98,4.55,3.07,4.9.11l2.83-23.84c.34-2.86,4.48-2.91,4.88-.06l.91,6.39c.39,2.7,4.23,2.86,4.84.2l4.05-17.62c.6-2.63,4.39-2.51,4.83.15l4.3,26.15c.44,2.7,4.29,2.77,4.84.09l4.9-23.97c.5-2.45,3.91-2.68,4.74-.32l2.5,7.15c.79,2.25,3.99,2.18,4.68-.1l1.28-9.13c8.78-1.33,21.25-9.84,25.12-12.42,2.45,2.45,4.55,4.55,7,6.65,4.2,3.5,9.8,6.65,15.05,6.65,9.45,0,18.9-8.05,27.65-16.1l3.59-3.34c.43,12.57,2.48,20.14,11.1,20.14,9.1,0,29.75-42.35,39.2-57.4,6.65-10.5,10.15-14,12.25-14,1.4,0,1.75,2.45,1.75,6.65,0,15.4-8.05,35.7-8.05,46.55,0,8.4,0,18.2,12.6,18.2s36.75-46.9,40.95-57.05c4.2-8.05,5.95-10.15,11.2-10.15,2.1,0,3.15,1.4,3.15,4.55,0,2.8-9.8,28.35-9.8,42.35,0,14.7,9.46,20.64,20.3,21,14.35.48,29.91-9.71,39.07-19.79-.76,11.53-1.46,23.37-1.99,34.95-1.86,40.46-1.77,77.74-1.77,85.38,0,.43.03.83.08,1.22l-.04,21.3c.31,2.33,3.67,2.43,4.11.12l.7-7.31c.45-2.35,4.72-3.34,5.12.6l2.12,31.31c.14,4.35,5.76,4.95,6.13.03l1.55-35.89c.06-.65.15-1.25.35-1.79.39-1.04,1.4-1.78,2.51-1.85,1.14-.07,2.01.84,2.13,1.89l.71,5.77c.31,2.53,3.71,2.33,3.8-.23l.31-24.53c0-.06,0-.25,0-.5,0-1.19-.06-2.44-.06-3.8,0-10.85-1.91-30.86-2.47-43.19-.72-15.8-1.21-25.82.89-43.67,12.6-7,24.15-14.7,33.95-23.1,16.8-14,33.95-34.3,33.25-56.35-.16-13.93-7-23.13-16.8-29.01,6.4-3.34,15.93-4.13,25.33-2.58ZM618.43,593.41c2.69-.77,4.62,2.31,4.62,8.09,0,10.01-13.48,27.34-36.58,37.35.77-20.41,20.79-45.05,31.96-45.43ZM804.95,494.04l.49,2.6c1.05,4.56,4.78,8.02,9.41,8.71v-.12c.54-4.77-1.98-9.36-6.3-11.47l-1.04-.51c11.12-3.53,22.15-8.48,31.84-15.27-4.91,7.23-8.82,14.82-11.46,22.65-4.51,5.99-11.19,9.92-19.07,10.95-11.1,1.46-23.28-2.61-35.38-11.39,9.72-.99,20.61-2.9,31.51-6.15ZM765.24,497.72c-9.47.48-17.05.07-21.19-.58-.18-7.99-.36-15.94-.55-23.74,7.53,10.49,14.85,18.39,21.74,24.32ZM773.04,543.88c-.58-.26-1.14-.52-1.7-.78,4.64.33,9.07-2.08,11.28-6.21l-.11-.06c-4.5-2.2-9.89-1.34-13.48,2.15l-2.06,2c-10.96-5.64-18.6-11.96-22.34-16.16-.16-8.13-.33-16.37-.51-24.59,3.2.51,7.65.82,12.99.82,3.53,0,7.45-.14,11.64-.46,7.68,6.01,14.76,9.6,20.93,11.67l-.34.12c-2.69,1.08-4.44,3.7-4.41,6.6h.07c2.71-.13,5.06-1.8,6.12-4.25l-.07.36c-.57,3.96,1.35,7.87,4.83,9.84h0s.05-.09.05-.09c1.89-3.65,1.29-8.09-1.5-11.1l-.16-.17c3.95.94,7.42,1.26,10.29,1.26,1.79,0,3.36-.12,4.66-.29,6.49-.85,12.25-3.49,16.82-7.52-1.27,5.25-1.95,10.58-1.95,15.97,0,10.02,3,18.65,8,26.18-23.64,6.54-45.01.84-59.04-5.31ZM1389.72,673.52c2.45-27.65,4.9-50.4,7-78.05,17.85-2.8,25.55,12.25,26.25,25.9.7,20.3-13.3,41.65-33.25,52.15Z"/>
      <path class="cls-3" d="M257.55,681.88c-38.02,0-68.83,8.76-68.83,19.56,0,3,2.38,5.84,6.63,8.38,17.12-2.54,60.55-9.95,60.55-9.95l-32.89,18.49c10.16,1.68,21.95,2.65,34.55,2.65,38.02,0,68.83-8.76,68.83-19.56s-30.82-19.56-68.83-19.56Z"/>
      <path class="cls-3" d="M535.66,732.17c-64.55,0-116.88,14.87-116.88,33.22s52.33,33.22,116.88,33.22c20.63,0,40-1.52,56.82-4.19-23.04-11.24-69.24-31.44-69.24-31.44,0,0,91.29,7.82,124.98,11.36,2.8-2.85,4.32-5.85,4.32-8.95,0-18.35-52.33-33.22-116.88-33.22Z"/>
      <path class="cls-3" d="M1560.13,707.62l-23.44,10.59-1.71-11.52c-33.67.3-60.56,6.6-60.56,14.31s28.26,14.33,63.11,14.33,63.11-6.42,63.11-14.33c0-6.11-16.83-11.32-40.52-13.38Z"/>
      <path class="cls-3" d="M802.37,313.06c3.31-10.86-2.6-22.44-13.43-26.06-3.36-1.12-6.8-1.34-10.07-.8,2.11,1.57,4.16,3.21,6.13,4.93,7.48,6.45,13.38,13.87,17.38,21.92Z"/>
      <path class="cls-3" d="M738.82,354.57c1.11.78,2.85,2.56,3.92,3.47,11.41,9.88,23.89,30.16,41.75,21.92,11.68-5.75,18.3-25.61,19.2-37.78,2.38-30.21-23.66-53.9-49.68-63.97-37.21-14.12-80.15-.7-102.48,31.7,3.96.44,7.92,1.3,11.82,2.63,1.36.48,2.68,1.03,3.97,1.64,1.8-2.04,3.69-3.99,5.7-5.83,10.45-9.6,23.14-15.49,36.38-17.77,5.51-9.62,17.23-14.37,28.15-10.72,7.81,2.61,13.37,8.9,15.4,16.31,6.42,2.91,12.5,6.76,18,11.55,14.94,12.31,21.4,28.11,15.17,46.97-1.72,4.82-4.41,14.09-10.46,14.22-1.86-.02-3.85-.91-5.71-2.01-3.74-2.25-7.21-5.25-10.73-8.12-3.52-2.9-7.08-5.81-10.8-8.52-3.72-2.97-8.19-5.15-12.96-5.55-4.72-.53-9.4-.03-13.94.75-6.18.89-12.05,3.25-18.22,3.53-.48-.02-.9-.17-1.01-.29-.34-.45.12-1.6.42-2.19.01-.02.02-.04.04-.06.45-.94,1.03-1.86,1.64-2.76.22-.33.19-.78-.11-1.07-.38-.37-.97-.29-1.29.11-2.51,2.33-5.96,6.99-1.25,9.12,1.8.66,3.69.69,5.52.64.56-.02,1.12-.04,1.67-.05,9.57-.51,21.79-2.75,29.89,2.12Z"/>
      <path class="cls-3" d="M720.93,469.3c.54-.19.83-.77.64-1.31-1.08-3.14-2.58-5.55-4.2-7.72-3.21-4.12-6.92-7.62-11.91-9.2-7.3-2.08-14.08-5.3-21.31-7.65-1.74-.58-3.48-1.17-5.23-1.74,1.83.15,3.66.29,5.49.43,5.03.36,10.05.57,15.05.63,4.96.09,10.1,1.54,14.96-.14,5.34-1.7,10.03-4.17,14.09-8.65.33-.47.22-1.11-.25-1.44-4.96-3.41-10-4.76-15.57-5.22-5.12-.55-9.8,2.01-14.62,3.2-8.83,2.15-17.54,4.76-26.17,7.73,4,4.06,8.37,7.75,13.05,11.01.87.59.04,2-.96,1.4-5.28-2.59-10.17-5.65-14.66-9.1.91,4.31,1.98,8.54,3.04,12.77,1.25,4.89,2.64,9.71,4.17,14.48,1.48,4.73,1.74,10.06,4.87,14.15,3.31,4.53,7.13,8.2,12.67,10.63.55.16,1.12-.14,1.29-.69,1.66-5.79,1.35-11,.03-16.42-1.1-5.03-5.01-8.66-7.66-12.85-3.65-5.8-7.53-11.46-11.59-17.01,1.4,1.19,2.81,2.38,4.22,3.57,3.88,3.23,7.82,6.34,11.84,9.31,3.97,2.97,7.29,7.15,12.22,8.64,5.33,1.74,10.58,2.48,16.49,1.22Z"/>
      <path class="cls-3" d="M684.01,450.62c1,.6,1.83-.81.96-1.4-4.68-3.26-9.05-6.96-13.05-11.01-.99-1.01-1.95-2.04-2.9-3.09.01,0,.02,0,.03,0-1.18-1.33-2.34-2.68-3.44-4.07-16.85-21.15-23.7-49.85-18.15-76.32,1.43-6.8,3.62-13.48,6.53-19.84-1.23-.14-2.47-.18-3.68-.17-4.18-.11-8.3.56-12.22,1.83-10.57,33.67-2.39,71.52,21.66,96.4,1.78,1.87,3.65,3.66,5.61,5.37,0-.02,0-.03.01-.05,1.29,1.12,2.61,2.2,3.97,3.24,4.49,3.45,9.38,6.51,14.66,9.1Z"/>
      <path class="cls-3" d="M610.56,400.23c-5.22-13.1-6.46-28.18-2.17-41.69,5.93-17.65,23.67-29.93,42.31-28.87,14.97.08,27.46,12.12,28.8,26.98,1.97,13.9-8.91,25.84-23.18,26.14,5.84,1.63,12.38.87,17.84-2.01,19.16-9.97,18.16-37.52,4.82-52.15-6.77-7.73-16.83-12.83-27.18-13.58,0,0-2.49-.24-2.49-.24-22.98-1.52-45.46,12.85-54.05,34.19-16.68,43.24,16.83,93.96,63.59,93.22-21.51-5.83-40.13-21.22-48.29-42.01Z"/>
      <path class="cls-3" d="M712.69,296.62c-3.19,9.56,1.99,19.93,11.55,23.12,9.56,3.19,19.93-1.99,23.12-11.55,3.19-9.56-1.99-19.93-11.55-23.12-1.91-.64-3.86-.94-5.77-.94-7.65,0-14.79,4.84-17.35,12.49Z"/>
      <path class="cls-3" d="M733.36,376.6c-5.57-.63-10.86-.3-16.4,2.12-.49.29-.65.92-.36,1.41,3.13,5.14,7.18,8.44,12.06,11.14,4.44,2.59,9.77,2.19,14.65,3.07,6.88,1.27,13.81,2.27,20.78,3.04-2.02.24-4.04.49-6.05.75-4.96.65-9.87,1.44-14.73,2.37-4.83.9-10.11.5-14.49,3.1-4.84,2.73-8.89,6.08-11.91,11.26-.23.52,0,1.14.53,1.37,5.5,2.35,10.66,2.67,16.16,2.02,5.08-.48,9.11-3.91,13.54-6.03,7.32-3.48,14.48-7.29,21.5-11.4-2.36,2.13-4.68,4.29-7,6.45-3.67,3.46-7.23,7.01-10.66,10.65-3.43,3.59-7.97,6.39-10.04,11.1-2.37,5.08-3.73,10.21-3.18,16.23.12.56.67.91,1.23.79,3.25-.7,5.81-1.89,8.17-3.24,4.47-2.7,8.39-5.96,10.55-10.72,2.94-7,6.94-13.34,10.14-20.25,2.17-4.56,4.36-9.11,6.3-13.83.11-.24.07-.46-.04-.65-.03-.21-.13-.41-.35-.54-.07-.04-.14-.08-.21-.13-.08-.07-.17-.14-.28-.17-4.2-2.55-8.47-4.86-12.75-7.18-4.45-2.39-8.94-4.63-13.47-6.74-4.49-2.12-8.58-5.54-13.71-6.01Z"/>
    </g>
    <g>
      <path class="cls-1" d="M748.46,415.52s.03-.03.05-.05c-1.15.56-2.32,1.24-3.54,1.95-.88.51-1.79,1.04-2.73,1.55.02.76.03,1.54.05,2.31,1.02-1.02,2.07-1.96,3.07-2.85,1.12-.99,2.17-1.93,3.1-2.91Z"/>
      <path class="cls-1" d="M1464.39,579.99c-9.04-5.3-18.5-6.52-25.64-6.07,10.12-7.93,29.78-20.75,54.35-23.92,0,.05,0,.09,0,.13.13,2.83,2.52,5.02,5.36,4.9l14.94-.67c2.34-.1,4.22-1.77,4.74-3.94.46.08.92.15,1.39.23.52.1,1.04-.25,1.13-.78s-.25-1.04-.78-1.13c-.56-.1-1.11-.19-1.66-.28-.4-2.55-2.63-4.46-5.27-4.34l-14.94.67c-2.08.09-3.8,1.41-4.52,3.22-23.84,2.92-43.2,14.79-54.05,22.96,2.68-4.19,5.66-8.97,8.97-15.23-5.82,4.51-10.46,8.43-14.33,12.14,3.9-6.17,9.23-13.74,16.05-21.55,9.51-10.88,23.24-23.63,41.18-33.07.02.06.04.11.06.17,1.53,3.6,5.69,5.28,9.28,3.75l19-8.06c2.98-1.26,4.64-4.33,4.25-7.39.63-.12,1.25-.25,1.88-.36.73-.13,1.22-.83,1.09-1.56-.13-.73-.83-1.22-1.56-1.09-.76.13-1.5.29-2.25.43-1.74-3.12-5.59-4.5-8.95-3.07l-19,8.06c-2.64,1.12-4.24,3.65-4.31,6.34-18.69,9.67-32.94,22.89-42.76,34.14-7.52,8.62-13.27,16.97-17.3,23.51-1.38-8.78-5.35-20.9-15.07-31.48,6.66,13.54,8.79,26.36,7.82,35.52-4.21-5.01-9.13-10.4-17.04-15.59,7.65,6.65,11.05,12.99,13.73,18.96-7.07-1.49-14.44-2.1-21.34-2.1.7-4.9,1.05-9.8,1.4-14,.7-7.35,1.4-15.75,1.4-18.9,0-8.75-1.4-11.55-8.4-11.55-15.75,0-18.55,23.1-20.3,38.15l-1.4,10.85-4.9,2.1c-2.45,1.05-5.25,2.45-6.65,3.15-9.8,5.6-12.6,20.3.35,20.3,2.8,0,6.65-1.05,9.1-1.75-.69,11.4-1.95,27.56-3.28,45.76-6.2,3.98-18.3,14.79-22.87,14.79-5.95,0-8.4-2.45-8.4-11.55,0-11.55,10.15-31.15,10.15-44.45,0-14-4.55-21-18.2-21-22.75,0-41.65,60.2-48.65,60.2-1.4,0,4.2-27.3,4.2-44.1,0-8.75-1.4-21-14.7-21-15.4,0-38.15,41.65-47.6,59.5v-29.05c0-15.75,4.9-9.1,4.9-24.15,0-7-2.1-9.8-5.6-9.8-5.25,0-10.15,5.6-17.5,13.65-6.3,6.3-13.3,13.65-13.3,17.85,0,5.6,6.3,8.05,6.3,17.85,0,2.81-1.6,10.18-2.83,19.11,0,0,0,0,0,0-.78,6.53-12.56,14.84-17.46,14.84-3.5,0-7.35-4.2-8.4-5.95,2.8-4.55,5.6-8.75,7.7-12.25,3.85-6.65,8.05-14,8.05-17.15.7-3.5.7-12.6-8.05-12.6-18.2,0-24.85,19.6-28.7,31.5-2.45,7-5.25,12.25-7.7,15.4-1.75.7-3.85,1.4-5.25,2.1-3.15,1.05-6.65,2.1-8.4,2.1-4.2,0-9.45.35-9.45-12.6,0-24.85,15.75-54.6,32.9-54.6,11.55,0,10.5,7.7,18.55,7.7,4.55,0,17.5-7.35,17.5-15.4,0-11.2-10.15-12.6-20.3-12.6-2.92,0-5.74.19-8.47.54-.76-4.18-2.75-11.23-7.42-17.23-6.18-9.64-18.71-16.78-18.52-16.33,8.87,10.04,15.06,21.66,18.2,33.8-5.64-8.16-16.16-14.41-29.2-15.36,9.67,3.65,17.57,9.71,22.95,17.08-8.07-2.79-19.5-1.57-29.29,6.67,7.9-3.81,15.87-4.13,22.3-2.15-13.54,6.95-23.98,18.29-31.64,30.48-.64-15.18-9.63-34.36-15.36-34.36-5.25,0-16.8,9.1-16.8,15.4s11.55,21.35,11.55,35.7c0,9.8-7.7,30.1-21,30.1-18.2,0-18.2-10.85-18.2-21.7,0-24.85,10.5-38.15,11.2-43.4.35-5.6-.7-12.6-12.6-12.6-13.3,0-25.9,38.15-25.9,54.6v15.05l-5.95,3.5c-3.5,2.1-7.35,3.85-9.45,3.85-7.35,0-10.85-5.95-10.85-17.5,0-16.45,11.9-49.7,11.9-56.7,0-3.5-2.1-6.3-9.45-6.3-8.75,0-12.95,3.5-17.15,10.5-1.47,2.61-3.17,8.75-4.79,16.51-5.35-27.61-33-38-60.66-48.37-26.6-10.15-52.5-19.6-52.5-46.55,0-14.74,5.34-29.12,15.88-41.57l1.4,14.2c.14,2.84,4.3,2.97,4.62.15l2.45-21.62c.32-2.84,4.49-2.69,4.62.16.51,11.47,1.02,21.54,1.18,20.13.16-1.46,1.76-11.7,3.42-22.21.44-2.78,4.52-2.52,4.61.29l2.48,50.48c.09,2.93,4.4,3.03,4.63.11l6.8-55.85c.21-2.69,4.06-2.91,4.58-.27l1.31,6.67c.51,2.57,4.22,2.46,4.57-.14l2.02-15.1c.35-2.63,4.13-2.7,4.58-.09.43,2.49,3.97,2.59,4.54.13l3.53-11.12c2.61-.62,5.26-1.21,8-1.73,11.47-2.18,23.19-1.95,28.17,6.89,9.41,16.72-13.46,46.43-25.41,50.7-11.96,4.26-16.69,10.51-19.84,17.86-2.1,4.2-2.41,8.11.74,11.97,2.1,2.45,7.42,2.72,9.87,2.72,4.2,0,10.49-1.04,18.89-6.64,12.25-7.35,38.52-38.65,38.52-69.45,0-10.09-2.5-19.66-9.28-26.3l1.67-.25c8.85-1.33,15.92-8.08,17.65-16.86l.04-.22h0c-6.24-.99-12.44.87-17.08,4.82,2.78-8.17,1.87-17.33-2.91-24.91l-.17-.26c-9.87,6.75-14.6,18.85-11.94,30.5-4.09-1.2-8.85-1.87-14.4-1.87-34.56,0-81.1,22.89-108.58,55.33-8.1,7.77-17.71,13.62-27.79,18.01,3.03-3.47,3.67-8.44,1.6-12.57l-.11.06c-4.21,2.31-6.51,7.02-5.75,11.76l.38,2.36c-15.67,6.18-32.13,9-45.62,10.03-9.09-7.31-18.07-17.23-26.44-29.44-.16-6.62-.31-13.11-.46-19.39-.98.33-2.04.64-3.18.88-.32.07-.64.1-.95.1-2.09,0-3.97-1.46-4.43-3.58-.03-.14-.05-.28-.06-.42-.55-6,.56-11.73,3.49-18.02,1.09-2.49,2.74-4.51,4.5-6.28-.02-.78-.03-1.55-.05-2.31-2.46,1.32-5.18,2.49-8.3,2.79-1.77.21-3.45.31-5.07.31-4.58,0-8.68-.84-12.79-2.6-2.33-1.03-3.37-3.72-2.35-6.01.05-.12.11-.23.18-.34,3.03-5.18,7.22-9.17,13.22-12.55,3.66-2.17,7.77-2.59,11.4-2.96.54-.05,1.05-.11,1.56-.17-.53-.06-1.05-.11-1.6-.17-3.66-.36-7.8-.77-11.57-2.96-6-3.32-10.12-7.14-13.29-12.35-.64-1.08-.81-2.3-.51-3.48.3-1.17,1.04-2.16,2.09-2.77.12-.07.24-.13.37-.19,5.52-2.42,11.3-3.18,18.2-2.4,2.89.26,5.47,1.3,7.83,2.51-1.9-14.5-23.37-14.21-37.22-10.73-9.64,2.75-20.07,10.33-20.51,21.28-.21,5.33,3.46,21.03,8.61,42.13,1.6-.42,3.19-.85,4.78-1.24,1.3-.32,2.64-.77,4.06-1.25,3.48-1.17,7.43-2.5,11.77-2.03,6.83.57,12.16,2.37,17.18,5.82,1.03.73,1.68,1.77,1.89,2.96.21,1.19-.07,2.4-.77,3.38-.08.11-.17.22-.26.33-4.04,4.47-9.01,7.53-15.62,9.64-2.14.74-4.31.97-6.42.97-1.88,0-3.7-.18-5.42-.35-.42-.04-.81-.08-1.21-.11,1.32.45,2.64.89,3.99,1.27.03,0,.06.02.1.03,6.55,2.08,10.91,6.92,13.61,10.38,1.53,2.06,3.41,4.85,4.75,8.74.39,1.14.32,2.37-.21,3.46-.53,1.09-1.45,1.9-2.6,2.3-.13.05-.27.08-.41.11-2.2.47-4.39.71-6.61.71-3.73,0-7.56-.67-11.7-2.02-.17-.05-.33-.12-.5-.18,9.63,41.08,19.31,88.27,19.31,121.59,0,21-4.73,72.3-38.68,72.3-11.9,0-18.2-10.5-18.2-23.45,0-18.55,18.2-38.85,32.55-38.85,7,0,15.05-8.05,16.8-15.4,1.4-7.35,1.4-14.7-9.8-14-6.09.45-28.35,11.83-43.38,34.3,0,0,0,0,0,0-8.69,11.48-44.96,54.95-60.36,54.95-11.55,0-12.95-7.35-12.95-10.15,11.55-4.9,22.05-10.15,30.8-16.1,15.05-10.15,29.75-24.5,28-40.6-.63-8.14-5.73-16.83-16.81-18.58,7.78-14.23,19.25-27.64,39.36-36.57-22.72,6.9-35.29,19.99-44.03,32.97,6.15-24.13,17.19-47.76,34.01-73.31-21.19,22.74-32.5,46.18-39.22,68.97-3.98-16.27-12.12-33.99-30.85-49.05,15.46,16.82,22.67,35.27,25.08,52.84-5.03-6.15-10.83-12.36-19.75-18.09,8.06,7.99,12.36,16.41,15.7,24.82-30.72,11.45-54.12,54.05-50.37,79.44-.14-.06-.26-.1-.4-.16-26.5-13.63-59.71-57.78-60.59-65.78-.8-7.31,9.18-15.8,20.67-26.57,20.08-19.11,48.64-47.61,44.69-83.44-4.21-38.27-31.94-59.87-58.03-57-9.25,1.02-17.46,3.41-24.78,6.95-1.08-9,.12-19.02,3.01-29.35-6.75,8.72-11.12,17.49-13.79,25.53-3.19-9.83-5.33-20.75-8.12-32.74-4.52,15.25-5.66,29.54-4.48,41.57-.02-.02-.04-.05-.06-.07-2.75-11.11-7.28-26.09-14.5-42.37-8.84-19.94-23-44.53-44.88-66.09,1.06-3.78-.07-8-3.27-10.7l-23-19.46c-4.07-3.45-10.04-3.19-13.81.41-.98-.53-1.96-1.06-2.95-1.58-.97-.5-2.15-.12-2.64.85-.5.96-.12,2.15.84,2.64.83.43,1.65.88,2.47,1.32-1.85,4.1-.87,9.09,2.74,12.14l23,19.46c4.36,3.69,10.88,3.14,14.57-1.22.06-.07.1-.14.16-.21,20.94,20.91,34.57,44.63,43.13,63.91,5.47,12.32,9.37,23.88,12.12,33.54-6.4-7.78-13.59-16.23-22.71-25.71,4.86,11.38,9.45,21.11,14.01,29.81-8.67-10.99-21.17-23.78-37.79-33.66.08-2.56-1.29-5.05-3.73-6.26l-17.58-8.72c-3.11-1.54-6.84-.46-8.67,2.41-.7-.18-1.4-.37-2.11-.54-.68-.16-1.38.26-1.54.95-.16.69.26,1.38.95,1.54.59.14,1.18.3,1.77.45-.53,2.88.87,5.89,3.62,7.25l17.58,8.72c3.33,1.65,7.37.29,9.02-3.04.03-.05.04-.11.07-.16,22.43,13.58,37.7,33,46.94,47.81-16.96-8.44-41.24-15.17-72.08-13.22,29,4.76,51.58,12.39,67.97,23.04-15.2-.43-34.85,1.62-56.78,16.04,21.03-9.14,38.61-8.69,53.06-4.82-13.66,26.91-20.08,62.29-24.72,97.65-4.17,32.5-12.64,73.93-18.9,103.49-3.88,15.92,6.55,17.94,20.74,15.68,21.42-3.77,28.77-13.73,26.21-37.04-4.12-37.49-12.34-136.67,17.42-178.79.37-.19.6-.52.67-.91,7.44-10.13,17.18-16.79,29.85-18.18,20.53-2.26,35.93,19.29,37.65,34.94,4.33,39.31-28.95,69.74-54.25,95.76-7.89,8.26-14.2,18.11-6.95,29.64,9.26,13.77,33.51,44.51,64.04,60.27,28.34,14.64,54.62,15.09,60.89,15.08.04,0,.07,0,.1,0,.05,0,.09,0,.14,0,.37,0,.65,0,.85,0,.08,0,.14,0,.2-.01,22.64-.59,39.36-17.7,49.1-31.38.8,16.17,6.88,33.5,27.9,33.5s47.12-20.53,60.74-53.19l.06.21c2.83,8.97,10.86,15.3,20.25,15.94v-.24c.3-9.65-5.49-18.44-14.48-21.98l-1.51-.6,2.35.48c7.3,1.2,14.58-2.2,18.36-8.56l-.17-.09c-6.61-3.59-14.75-2.69-20.4,2.25,3.27-11.14,5.15-23.37,5.15-36.44,0-17.39-.29-38.68-.71-61.05,8.51,8.15,26.11,19.59,47.88,24.03l1.09,3.84c1.59,4.86,5.99,8.26,11.09,8.56v-.13c.1-4.8-2.58-9.18-6.79-11.33,4.11.59,8.35.93,12.69.93,7.51,0,15.31-1,23.24-3.3,13.33,17.81,37.86,29.18,58.77,38.07,22.75,9.45,35.19,16.17,35.19,31.22,0,17.85-7.06,33.7-35.06,33.7-18.55,0-31.53-10.18-36.43-23.83-3.5-9.8-6.3-17.5-12.6-17.5-6.65,0-14.97,19.97-14.97,29.07,0,19.25,27.12,49.54,61.07,49.89,20.61.55,58.27-16.17,73.5-47.44-.45,5.08-.71,9.73-.71,13.51,0,17.15,8.4,33.95,21,33.95,7,0,26.6-18.2,33.25-24.15,2.45,4.2,5.6,8.05,8.4,11.55,5.25,5.95,12.6,11.9,20.65,11.9,2.25,0,5.49-1.22,9.29-3.45l2.59,35.26c.22,2.98,4.55,3.07,4.9.11l2.83-23.84c.34-2.86,4.48-2.91,4.88-.06l.91,6.39c.39,2.7,4.23,2.86,4.84.2l4.05-17.62c.6-2.63,4.39-2.51,4.83.15l4.3,26.15c.44,2.7,4.29,2.77,4.84.09l4.9-23.97c.5-2.45,3.91-2.68,4.74-.32l2.5,7.15c.79,2.25,3.99,2.18,4.68-.1l1.28-9.13c8.78-1.33,21.25-9.84,25.12-12.42,2.45,2.45,4.55,4.55,7,6.65,4.2,3.5,9.8,6.65,15.05,6.65,9.45,0,18.9-8.05,27.65-16.1l3.59-3.34c.43,12.57,2.48,20.14,11.1,20.14,9.1,0,29.75-42.35,39.2-57.4,6.65-10.5,10.15-14,12.25-14,1.4,0,1.75,2.45,1.75,6.65,0,15.4-8.05,35.7-8.05,46.55,0,8.4,0,18.2,12.6,18.2s36.75-46.9,40.95-57.05c4.2-8.05,5.95-10.15,11.2-10.15,2.1,0,3.15,1.4,3.15,4.55,0,2.8-9.8,28.35-9.8,42.35,0,14.7,9.46,20.64,20.3,21,14.35.48,29.91-9.71,39.07-19.79-.76,11.53-1.46,23.37-1.99,34.95-1.86,40.46-1.77,77.74-1.77,85.38,0,.43.03.83.08,1.22l-.04,21.3c.31,2.33,3.67,2.43,4.11.12l.7-7.31c.45-2.35,4.72-3.34,5.12.6l2.12,31.31c.14,4.35,5.76,4.95,6.13.03l1.55-35.89c.06-.65.15-1.25.35-1.79.39-1.04,1.4-1.78,2.51-1.85,1.14-.07,2.01.84,2.13,1.89l.71,5.77c.31,2.53,3.71,2.33,3.8-.23l.31-24.53c0-.06,0-.25,0-.5,0-1.19-.06-2.44-.06-3.8,0-10.85-1.91-30.86-2.47-43.19-.72-15.8-1.21-25.82.89-43.67,12.6-7,24.15-14.7,33.95-23.1,16.8-14,33.95-34.3,33.25-56.35-.16-13.93-7-23.13-16.8-29.01,6.4-3.34,15.93-4.13,25.33-2.58ZM618.43,593.41c2.69-.77,4.62,2.31,4.62,8.09,0,10.01-13.48,27.34-36.58,37.35.77-20.41,20.79-45.05,31.96-45.43ZM804.95,494.04l.49,2.6c1.05,4.56,4.78,8.02,9.41,8.71v-.12c.54-4.77-1.98-9.36-6.3-11.47l-1.04-.51c11.12-3.53,22.15-8.48,31.84-15.27-4.91,7.23-8.82,14.82-11.46,22.65-4.51,5.99-11.19,9.92-19.07,10.95-11.1,1.46-23.28-2.61-35.38-11.39,9.72-.99,20.61-2.9,31.51-6.15ZM765.24,497.72c-9.47.48-17.05.07-21.19-.58-.18-7.99-.36-15.94-.55-23.74,7.53,10.49,14.85,18.39,21.74,24.32ZM773.04,543.88c-.58-.26-1.14-.52-1.7-.78,4.64.33,9.07-2.08,11.28-6.21l-.11-.06c-4.5-2.2-9.89-1.34-13.48,2.15l-2.06,2c-10.96-5.64-18.6-11.96-22.34-16.16-.16-8.13-.33-16.37-.51-24.59,3.2.51,7.65.82,12.99.82,3.53,0,7.45-.14,11.64-.46,7.68,6.01,14.76,9.6,20.93,11.67l-.34.12c-2.69,1.08-4.44,3.7-4.41,6.6h.07c2.71-.13,5.06-1.8,6.12-4.25l-.07.36c-.57,3.96,1.35,7.87,4.83,9.84h0s.05-.09.05-.09c1.89-3.65,1.29-8.09-1.5-11.1l-.16-.17c3.95.94,7.42,1.26,10.29,1.26,1.79,0,3.36-.12,4.66-.29,6.49-.85,12.25-3.49,16.82-7.52-1.27,5.25-1.95,10.58-1.95,15.97,0,10.02,3,18.65,8,26.18-23.64,6.54-45.01.84-59.04-5.31ZM1389.72,673.52c2.45-27.65,4.9-50.4,7-78.05,17.85-2.8,25.55,12.25,26.25,25.9.7,20.3-13.3,41.65-33.25,52.15Z"/>
      <path class="cls-1" d="M257.55,681.88c-38.02,0-68.83,8.76-68.83,19.56,0,3,2.38,5.84,6.63,8.38,17.12-2.54,60.55-9.95,60.55-9.95l-32.89,18.49c10.16,1.68,21.95,2.65,34.55,2.65,38.02,0,68.83-8.76,68.83-19.56s-30.82-19.56-68.83-19.56Z"/>
      <path class="cls-1" d="M535.66,732.17c-64.55,0-116.88,14.87-116.88,33.22s52.33,33.22,116.88,33.22c20.63,0,40-1.52,56.82-4.19-23.04-11.24-69.24-31.44-69.24-31.44,0,0,91.29,7.82,124.98,11.36,2.8-2.85,4.32-5.85,4.32-8.95,0-18.35-52.33-33.22-116.88-33.22Z"/>
      <path class="cls-1" d="M1560.13,707.62l-23.44,10.59-1.71-11.52c-33.67.3-60.56,6.6-60.56,14.31s28.26,14.33,63.11,14.33,63.11-6.42,63.11-14.33c0-6.11-16.83-11.32-40.52-13.38Z"/>
      <path class="cls-1" d="M802.37,313.06c3.31-10.86-2.6-22.44-13.43-26.06-3.36-1.12-6.8-1.34-10.07-.8,2.11,1.57,4.16,3.21,6.13,4.93,7.48,6.45,13.38,13.87,17.38,21.92Z"/>
      <path class="cls-1" d="M738.82,354.57c1.11.78,2.85,2.56,3.92,3.47,11.41,9.88,23.89,30.16,41.75,21.92,11.68-5.75,18.3-25.61,19.2-37.78,2.38-30.21-23.66-53.9-49.68-63.97-37.21-14.12-80.15-.7-102.48,31.7,3.96.44,7.92,1.3,11.82,2.63,1.36.48,2.68,1.03,3.97,1.64,1.8-2.04,3.69-3.99,5.7-5.83,10.45-9.6,23.14-15.49,36.38-17.77,5.51-9.62,17.23-14.37,28.15-10.72,7.81,2.61,13.37,8.9,15.4,16.31,6.42,2.91,12.5,6.76,18,11.55,14.94,12.31,21.4,28.11,15.17,46.97-1.72,4.82-4.41,14.09-10.46,14.22-1.86-.02-3.85-.91-5.71-2.01-3.74-2.25-7.21-5.25-10.73-8.12-3.52-2.9-7.08-5.81-10.8-8.52-3.72-2.97-8.19-5.15-12.96-5.55-4.72-.53-9.4-.03-13.94.75-6.18.89-12.05,3.25-18.22,3.53-.48-.02-.9-.17-1.01-.29-.34-.45.12-1.6.42-2.19.01-.02.02-.04.04-.06.45-.94,1.03-1.86,1.64-2.76.22-.33.19-.78-.11-1.07-.38-.37-.97-.29-1.29.11-2.51,2.33-5.96,6.99-1.25,9.12,1.8.66,3.69.69,5.52.64.56-.02,1.12-.04,1.67-.05,9.57-.51,21.79-2.75,29.89,2.12Z"/>
      <path class="cls-1" d="M720.93,469.3c.54-.19.83-.77.64-1.31-1.08-3.14-2.58-5.55-4.2-7.72-3.21-4.12-6.92-7.62-11.91-9.2-7.3-2.08-14.08-5.3-21.31-7.65-1.74-.58-3.48-1.17-5.23-1.74,1.83.15,3.66.29,5.49.43,5.03.36,10.05.57,15.05.63,4.96.09,10.1,1.54,14.96-.14,5.34-1.7,10.03-4.17,14.09-8.65.33-.47.22-1.11-.25-1.44-4.96-3.41-10-4.76-15.57-5.22-5.12-.55-9.8,2.01-14.62,3.2-8.83,2.15-17.54,4.76-26.17,7.73,4,4.06,8.37,7.75,13.05,11.01.87.59.04,2-.96,1.4-5.28-2.59-10.17-5.65-14.66-9.1.91,4.31,1.98,8.54,3.04,12.77,1.25,4.89,2.64,9.71,4.17,14.48,1.48,4.73,1.74,10.06,4.87,14.15,3.31,4.53,7.13,8.2,12.67,10.63.55.16,1.12-.14,1.29-.69,1.66-5.79,1.35-11,.03-16.42-1.1-5.03-5.01-8.66-7.66-12.85-3.65-5.8-7.53-11.46-11.59-17.01,1.4,1.19,2.81,2.38,4.22,3.57,3.88,3.23,7.82,6.34,11.84,9.31,3.97,2.97,7.29,7.15,12.22,8.64,5.33,1.74,10.58,2.48,16.49,1.22Z"/>
      <path class="cls-1" d="M684.01,450.62c1,.6,1.83-.81.96-1.4-4.68-3.26-9.05-6.96-13.05-11.01-.99-1.01-1.95-2.04-2.9-3.09.01,0,.02,0,.03,0-1.18-1.33-2.34-2.68-3.44-4.07-16.85-21.15-23.7-49.85-18.15-76.32,1.43-6.8,3.62-13.48,6.53-19.84-1.23-.14-2.47-.18-3.68-.17-4.18-.11-8.3.56-12.22,1.83-10.57,33.67-2.39,71.52,21.66,96.4,1.78,1.87,3.65,3.66,5.61,5.37,0-.02,0-.03.01-.05,1.29,1.12,2.61,2.2,3.97,3.24,4.49,3.45,9.38,6.51,14.66,9.1Z"/>
      <path class="cls-1" d="M610.56,400.23c-5.22-13.1-6.46-28.18-2.17-41.69,5.93-17.65,23.67-29.93,42.31-28.87,14.97.08,27.46,12.12,28.8,26.98,1.97,13.9-8.91,25.84-23.18,26.14,5.84,1.63,12.38.87,17.84-2.01,19.16-9.97,18.16-37.52,4.82-52.15-6.77-7.73-16.83-12.83-27.18-13.58,0,0-2.49-.24-2.49-.24-22.98-1.52-45.46,12.85-54.05,34.19-16.68,43.24,16.83,93.96,63.59,93.22-21.51-5.83-40.13-21.22-48.29-42.01Z"/>
      <path class="cls-1" d="M712.69,296.62c-3.19,9.56,1.99,19.93,11.55,23.12,9.56,3.19,19.93-1.99,23.12-11.55,3.19-9.56-1.99-19.93-11.55-23.12-1.91-.64-3.86-.94-5.77-.94-7.65,0-14.79,4.84-17.35,12.49Z"/>
      <path class="cls-1" d="M733.36,376.6c-5.57-.63-10.86-.3-16.4,2.12-.49.29-.65.92-.36,1.41,3.13,5.14,7.18,8.44,12.06,11.14,4.44,2.59,9.77,2.19,14.65,3.07,6.88,1.27,13.81,2.27,20.78,3.04-2.02.24-4.04.49-6.05.75-4.96.65-9.87,1.44-14.73,2.37-4.83.9-10.11.5-14.49,3.1-4.84,2.73-8.89,6.08-11.91,11.26-.23.52,0,1.14.53,1.37,5.5,2.35,10.66,2.67,16.16,2.02,5.08-.48,9.11-3.91,13.54-6.03,7.32-3.48,14.48-7.29,21.5-11.4-2.36,2.13-4.68,4.29-7,6.45-3.67,3.46-7.23,7.01-10.66,10.65-3.43,3.59-7.97,6.39-10.04,11.1-2.37,5.08-3.73,10.21-3.18,16.23.12.56.67.91,1.23.79,3.25-.7,5.81-1.89,8.17-3.24,4.47-2.7,8.39-5.96,10.55-10.72,2.94-7,6.94-13.34,10.14-20.25,2.17-4.56,4.36-9.11,6.3-13.83.11-.24.07-.46-.04-.65-.03-.21-.13-.41-.35-.54-.07-.04-.14-.08-.21-.13-.08-.07-.17-.14-.28-.17-4.2-2.55-8.47-4.86-12.75-7.18-4.45-2.39-8.94-4.63-13.47-6.74-4.49-2.12-8.58-5.54-13.71-6.01Z"/>
    </g>
  </g>
</svg>